<?xml version="1.0" standalone="no"?><!DOCTYPE svg PUBLIC "-//W3C//DTD SVG 1.1//EN" "http://www.w3.org/Graphics/SVG/1.1/DTD/svg11.dtd"><svg t="1687358561834" class="icon" viewBox="0 0 1024 1024" version="1.1" xmlns="http://www.w3.org/2000/svg" p-id="1681" xmlns:xlink="http://www.w3.org/1999/xlink" width="48" height="48"><path d="M516.8 190.4c-150.4 0-272 121.6-272 272 0 108.8 64 201.6 156.8 246.4l-70.4 124.8h371.2l-70.4-124.8c92.8-43.2 156.8-137.6 156.8-246.4 0-148.8-121.6-272-272-272z m116.8 603.2H398.4l40-70.4c24 8 51.2 11.2 78.4 11.2s52.8-4.8 78.4-11.2l38.4 70.4z m-116.8-99.2c-128 0-232-104-232-232s104-232 232-232 232 104 232 232-104 232-232 232z" fill="#ffffff" p-id="1682"></path><path d="M516.8 462.4m-86.4 0a86.4 86.4 0 1 0 172.8 0 86.4 86.4 0 1 0-172.8 0Z" fill="#ffffff" p-id="1683"></path></svg>