<?xml version="1.0" standalone="no"?><!DOCTYPE svg PUBLIC "-//W3C//DTD SVG 1.1//EN" "http://www.w3.org/Graphics/SVG/1.1/DTD/svg11.dtd"><svg t="1687584039802" class="icon" viewBox="0 0 1024 1024" version="1.1" xmlns="http://www.w3.org/2000/svg" p-id="3652" xmlns:xlink="http://www.w3.org/1999/xlink" width="48" height="48"><path d="M512 992C246.912 992 32 777.088 32 512 32 246.912 246.912 32 512 32c265.088 0 480 214.912 480 480 0 265.088-214.912 480-480 480z m0-64c229.76 0 416-186.24 416-416S741.76 96 512 96 96 282.24 96 512s186.24 416 416 416z" p-id="3653" fill="#707070"></path><path d="M688 480a32 32 0 0 1 0 64H272a32 32 0 0 1 0-64h416z" p-id="3654" fill="#707070"></path><path d="M707.072 512l-151.36-170.784a32 32 0 1 1 47.872-42.432l170.208 192a32 32 0 0 1 0 42.432l-170.24 192a32 32 0 1 1-47.872-42.432L707.072 512z" p-id="3655" fill="#707070"></path></svg>