<?xml version="1.0" standalone="no"?><!DOCTYPE svg PUBLIC "-//W3C//DTD SVG 1.1//EN" "http://www.w3.org/Graphics/SVG/1.1/DTD/svg11.dtd"><svg t="1687583654448" class="icon" viewBox="0 0 1024 1024" version="1.1" xmlns="http://www.w3.org/2000/svg" p-id="849" xmlns:xlink="http://www.w3.org/1999/xlink" width="48" height="48"><path d="M512 960.5c-60.5 0-119.3-11.9-174.6-35.3-53.4-22.6-101.4-54.9-142.5-96.1-41.2-41.1-73.5-89.1-96.1-142.5C75.4 631.3 63.5 572.5 63.5 512s11.9-119.3 35.3-174.6c22.6-53.4 54.9-101.4 96.1-142.6s89.1-73.5 142.6-96.1c55.2-23.3 114-35.2 174.5-35.2s119.3 11.9 174.6 35.3c53.4 22.6 101.4 54.9 142.6 96.1 41.2 41.2 73.5 89.1 96.1 142.6 23.4 55.3 35.3 114.1 35.3 174.6s-11.9 119.3-35.3 174.6c-22.7 53.3-55 101.3-96.2 142.4-41.2 41.2-89.1 73.5-142.6 96.1-55.2 23.4-114 35.3-174.5 35.3z m0-832c-211.5 0-383.5 172-383.5 383.5s172 383.5 383.5 383.5 383.5-172 383.5-383.5-172-383.5-383.5-383.5z" fill="#f12308" p-id="850"></path><path d="M512 512m-192 0a192 192 0 1 0 384 0 192 192 0 1 0-384 0Z" fill="#f12308" p-id="851"></path></svg>