<?xml version="1.0" standalone="no"?><!DOCTYPE svg PUBLIC "-//W3C//DTD SVG 1.1//EN" "http://www.w3.org/Graphics/SVG/1.1/DTD/svg11.dtd"><svg t="1687576662114" class="icon" viewBox="0 0 1024 1024" version="1.1" xmlns="http://www.w3.org/2000/svg" p-id="1282" xmlns:xlink="http://www.w3.org/1999/xlink" width="48" height="48"><path d="M179.151 609.908h75.862V599.13H220.34c-14.6 0-27.841-5.946-37.448-15.539-9.58-9.58-15.539-22.848-15.539-37.434v-318.19c0-14.519 5.988-27.76 15.594-37.394l-0.054-0.054c9.608-9.58 22.848-15.539 37.448-15.539H790.76c14.588 0 27.842 5.96 37.422 15.539l-0.041 0.054c9.62 9.634 15.594 22.874 15.594 37.394v318.189c0 14.586-5.947 27.855-15.553 37.434-9.58 9.594-22.834 15.539-37.422 15.539h-39.148v10.778h82.884l124.728 166.638h-2.818l-29.842 62.175H95.096l-31.025-62.175 115.08-166.637z m152.963 0h342.397V599.13H332.114v10.778zM790.76 225.735H220.341c-0.585 0-1.143 0.259-1.551 0.681h-0.109c-0.34 0.354-0.559 0.897-0.559 1.551v318.189c0 0.585 0.259 1.129 0.667 1.551 0.408 0.408 0.966 0.666 1.551 0.666h570.42c0.573 0 1.13-0.258 1.552-0.666 0.394-0.422 0.666-0.966 0.666-1.551V227.967c0-0.654-0.217-1.197-0.585-1.551h-0.081c-0.422-0.422-0.979-0.681-1.552-0.681zM197.466 714.019a47378.613 47378.613 0 0 1-17.499 28.631h90.463c4.396-9.879 8.655-19.405 12.751-28.631h-85.715z m43.953-71.154c-4.177 6.858-8.478 13.906-12.9 21.159h97.037c2.912-7.253 5.742-14.301 8.505-21.159h-92.642z m491.931 0c3.389 6.858 6.872 13.906 10.465 21.159h61.099c-4.559-7.253-8.954-14.301-13.24-21.159H733.35z m-75.563 0c2.218 6.858 4.518 13.906 6.871 21.159h61.045a8653.662 8653.662 0 0 1-9.648-21.159h-58.268z m-76.829 0c1.048 6.858 2.11 13.906 3.226 21.159h61.029c-2.054-7.253-4.055-14.301-5.988-21.159h-58.267z m-75.563 0c-0.11 6.858-0.245 13.906-0.354 21.159h61.029a18903.02 18903.02 0 0 1-2.408-21.159h-58.267z m-76.883 0c-1.293 6.858-2.641 13.906-4.014 21.159h60.976c0.421-7.253 0.843-14.301 1.251-21.159h-58.213z m-75.578 0a7695.252 7695.252 0 0 1-7.593 21.159h60.976c1.66-7.253 3.28-14.301 4.845-21.159h-58.228z m360.59 33.57c3.307 7.919 6.736 16.097 10.274 24.548h102.725a33453.977 33453.977 0 0 1-15.282-24.548h-97.717z m-83.511 0c1.933 7.919 3.932 16.097 5.988 24.548h65.874c-3.17-8.451-6.231-16.629-9.198-24.548h-62.664z m-81.196 0c0.598 7.919 1.211 16.097 1.837 24.548h65.807c-1.742-8.451-3.417-16.629-5.036-24.548h-62.608z m-82.612 0c-0.776 7.919-1.579 16.097-2.409 24.548h65.807c-0.273-8.451-0.545-16.629-0.804-24.548h-62.594z m-81.266 0c-2.122 7.919-4.3 16.097-6.559 24.548h65.807c1.157-8.451 2.273-16.629 3.361-24.548h-62.609z m-82.721 0c-3.497 7.919-7.104 16.097-10.819 24.548h65.821c2.613-8.451 5.129-16.629 7.593-24.548h-62.595z m-81.264 0c-4.831 7.919-9.811 16.097-14.97 24.548h65.807c4.055-8.451 7.975-16.629 11.758-24.548h-62.595z m527.828 37.584c4.218 9.226 8.573 18.751 13.076 28.631h90.601c-6.151-9.879-12.098-19.405-17.826-28.631h-85.851z m-89.158 0c2.627 9.226 5.334 18.751 8.124 28.631h71.332c-4.097-9.879-8.057-19.405-11.88-28.631h-67.576z m-87.756 0c1.048 9.226 2.136 18.751 3.252 28.631h71.331c-2.422-9.879-4.749-19.405-7.008-28.631h-67.575z m-87.633 0c-0.517 9.226-1.048 18.751-1.593 28.631h71.318c-0.748-9.879-1.456-19.405-2.15-28.631h-67.575z m-89.157 0l-6.546 28.631h71.264c0.953-9.879 1.891-19.405 2.79-28.631h-67.508z m-87.634 0c-3.661 9.226-7.47 18.751-11.404 28.631h71.264c2.641-9.879 5.197-19.405 7.647-28.631h-67.507z" fill="#ffffff" p-id="1283"></path></svg>