<svg t="1699348157236" class="icon" viewBox="0 0 1024 1024" version="1.1" xmlns="http://www.w3.org/2000/svg" p-id="5890" width="48" height="48"><path d="M510.69834486 750.99769221c-178.06642147 0-323.07080271-145.00438124-323.07080269-323.07080271s145.00438124-323.07080271 323.07080269-323.0708027 323.07080271 145.00438124 323.07080273 323.0708027S688.76476636 750.99769221 510.69834486 750.99769221z m0-581.05884904c-142.14073993 0-257.98804631 115.58697534-257.9880463 257.98804633s115.58697534 257.98804631 257.9880463 257.98804635 257.98804631-115.58697534 257.98804633-257.98804635-115.84730638-257.98804631-257.98804633-257.98804633z" fill="currentColor" p-id="5891"></path><path d="M515.9049654 425.32357924m-67.68606665 0a67.68606667 67.68606667 0 1 0 135.37213328 0 67.68606667 67.68606667 0 1 0-135.37213328 0Z" fill="currentColor" p-id="5892"></path><path d="M478.1569667 687.47692201h65.08275635v156.97960839h-65.08275635z" fill="currentColor" p-id="5893"></path><path d="M339.92119212 811.9151522H681.2151666v65.08275639H339.92119212z" fill="currentColor" p-id="5894"></path></svg>