<?xml version="1.0" standalone="no"?><!DOCTYPE svg PUBLIC "-//W3C//DTD SVG 1.1//EN" "http://www.w3.org/Graphics/SVG/1.1/DTD/svg11.dtd"><svg t="1691506773662" class="icon" viewBox="0 0 1024 1024" version="1.1" xmlns="http://www.w3.org/2000/svg" p-id="1879" width="48" height="48" xmlns:xlink="http://www.w3.org/1999/xlink"><path d="M841.142857 146.285714a73.142857 73.142857 0 0 1 73.142857 73.142857v585.142858a73.142857 73.142857 0 0 1-73.142857 73.142857H182.857143a73.142857 73.142857 0 0 1-73.142857-73.142857V219.428571a73.142857 73.142857 0 0 1 73.142857-73.142857h658.285714z m0 73.142857H182.857143v585.142858h146.285714l271.433143-191.634286a73.142857 73.142857 0 0 1 80.530286-2.523429L841.142857 708.937143V219.428571zM365.714286 329.142857a73.142857 73.142857 0 1 1 0 146.285714 73.142857 73.142857 0 0 1 0-146.285714z" fill="currentColor" p-id="1880"></path></svg>