<?xml version="1.0" standalone="no"?><!DOCTYPE svg PUBLIC "-//W3C//DTD SVG 1.1//EN" "http://www.w3.org/Graphics/SVG/1.1/DTD/svg11.dtd"><svg t="1691596317421" class="icon" viewBox="0 0 1024 1024" version="1.1" xmlns="http://www.w3.org/2000/svg" p-id="1797" data-spm-anchor-id="a313x.collections_detail.0.i3.3d373a81GA4ENN" width="48" height="48" xmlns:xlink="http://www.w3.org/1999/xlink"><path d="M512 85.333333c77.952 0 150.101333 19.498667 216.405333 58.453334a404.394667 404.394667 0 0 1 151.808 151.808A419.626667 419.626667 0 0 1 938.666667 512a419.626667 419.626667 0 0 1-58.453334 216.405333 404.394667 404.394667 0 0 1-151.808 151.808A419.626667 419.626667 0 0 1 512 938.666667a419.626667 419.626667 0 0 1-216.405333-58.453334 412.032 412.032 0 0 1-151.808-152.832A417.706667 417.706667 0 0 1 85.333333 512a417.706667 417.706667 0 0 1 58.453334-215.381333A419.925333 419.925333 0 0 1 296.618667 143.786667 417.706667 417.706667 0 0 1 512 85.333333z m42.069333 212.309334h-84.138666v172.288H297.642667v84.138666h172.288v172.288h84.138666v-172.288h172.288v-84.138666h-172.288V297.642667z" fill="currentColor" p-id="1798" data-spm-anchor-id="a313x.collections_detail.0.i4.3d373a81GA4ENN" class=""></path></svg>