<svg width="16" height="16" viewBox="0 0 16 16" fill="none" xmlns="http://www.w3.org/2000/svg">
<path fill-rule="evenodd" clip-rule="evenodd" d="M7.99992 14.6667C11.6818 14.6667 14.6666 11.6819 14.6666 8.00004C14.6666 4.31814 11.6818 1.33337 7.99992 1.33337C4.31802 1.33337 1.33325 4.31814 1.33325 8.00004C1.33325 11.6819 4.31802 14.6667 7.99992 14.6667ZM8.66659 5.33337C8.66659 4.96518 8.36811 4.66671 7.99992 4.66671C7.63173 4.66671 7.33325 4.96518 7.33325 5.33337V7.33271L5.33325 7.33337C4.96506 7.33337 4.66659 7.63185 4.66659 8.00004C4.66659 8.36823 4.96506 8.66671 5.33325 8.66671L7.33325 8.66604V10.6667C7.33325 11.0349 7.63173 11.3334 7.99992 11.3334C8.36811 11.3334 8.66659 11.0349 8.66659 10.6667V8.66671H10.6666C11.0348 8.66671 11.3333 8.36823 11.3333 8.00004C11.3333 7.63185 11.0348 7.33337 10.6666 7.33337H8.66659V5.33337Z" fill="white" fill-opacity="0.4"/>
<rect opacity="0.01" width="16" height="16" fill="#F8F8F8"/>
</svg>
