<svg t="1709444314470" class="icon" viewBox="0 0 1024 1024" version="1.1" xmlns="http://www.w3.org/2000/svg" p-id="6732" width="48" height="48"><path d="M505.2928 135.338667C292.590933 135.338667 120.149333 307.780267 120.149333 520.533333s172.373333 385.143467 385.143467 385.143467S890.436267 733.201067 890.436267 520.533333 718.011733 135.338667 505.2928 135.338667z m0 710.058666c-179.438933 0-324.898133-145.476267-324.898133-324.864s145.4592-324.949333 324.898133-324.949333S830.208 341.0432 830.208 520.533333s-145.4592 324.864-324.9152 324.864z" fill="currentColor" p-id="6733"></path><path d="M203.093333 973.585067c-38.417067 0-65.416533-13.653333-83.541333-28.808534-61.047467-50.961067-51.114667-168.618667 27.306667-322.781866a29.013333 29.013333 0 0 1 51.729066 26.299733c-32.426667 63.863467-52.821333 122.129067-58.845866 168.4992-3.703467 28.484267-3.754667 66.082133 17.066666 83.456 33.2288 27.733333 85.674667 12.475733 123.835734-5.12C344.917333 865.28 421.546667 804.4032 502.0672 719.1552a29.013333 29.013333 0 1 1 42.171733 39.850667c-86.801067 91.8528-167.253333 155.306667-239.223466 188.689066-40.482133 18.773333-74.171733 25.890133-101.922134 25.890134zM779.127467 454.843733a29.013333 29.013333 0 0 1-25.088-43.537066c75.8784-131.089067 93.5424-237.141333 46.08-276.753067-18.090667-15.104-48.7424-11.52-71.2704-5.853867-37.0688 9.301333-82.449067 31.675733-131.259734 64.6656a29.013333 29.013333 0 1 1-32.512-48.059733c120.593067-81.544533 217.275733-101.1712 272.2304-55.296 72.704 60.7232 60.654933 188.433067-33.0752 350.378667a29.013333 29.013333 0 0 1-25.105066 14.455466z" fill="currentColor" p-id="6734"></path><path d="M583.424 691.4048c-8.123733 9.454933-31.232 15.189333-31.232 15.189333s3.054933-24.6784 10.359467-33.160533a14.114133 14.114133 0 1 1 24.917333 13.277867 14.592 14.592 0 0 1-4.0448 4.693333m100.693333-109.4656a27.733333 27.733333 0 1 0-28.5184-26.862933A27.8016 27.8016 0 0 0 684.066133 581.973333m-8.635733 130.048l-3.413333 3.925334-37.4272-48.162134c-11.349333 7.2704-29.525333 4.727467-43.229867-7.0656s-18.978133-29.3888-13.2096-42.018133L525.653333 588.8l3.413334-3.908267c19.114667-22.186667 39.048533-32.8704 64.597333-34.218666 49.595733-67.549867 112.503467-83.336533 154.589867-75.5712l2.440533 0.443733 0.802133 2.3552c13.994667 40.465067 7.424 104.721067-51.626666 164.164267 2.8672 25.7536-4.727467 47.0528-24.3712 69.973333" p-id="6735" fill="currentColor"></path></svg>