<?xml version="1.0" standalone="no"?><!DOCTYPE svg PUBLIC "-//W3C//DTD SVG 1.1//EN" "http://www.w3.org/Graphics/SVG/1.1/DTD/svg11.dtd"><svg t="1691221818966" class="icon" viewBox="0 0 1024 1024" version="1.1" xmlns="http://www.w3.org/2000/svg" p-id="17186" width="48" height="48" xmlns:xlink="http://www.w3.org/1999/xlink"><path d="M437.9 165.2C485.6 208 566 305.3 570.2 310.4l-59.1 40.5 215.6-0.1 63.2-171.4-60.6 28.8-55.5-64.9c-0.7-0.8-13.9-17-25.7-21.4-11.8-4.3-33.7-3-34.9-3l-245.9 16c6.2-0.2 36.8 0.1 70.6 30.3zM797.1 632.4c5.1-1.2 102.8-24.5 121.7-38.9 18.8-14.4 46.9-44.2 40.2-87.1L819.7 333.5 659.8 447.8l137.3 184.6z" p-id="17187" fill="currentColor"></path><path d="M486 237.2c-3.4-3.7-70.6-72.9-93.4-81.9-13.7-5.3-34.5-11-57.3-9.5-15.1 1.1-31.2 5.4-46.8 15L180.8 349.6 366 429.7l120-192.5zM889.4 625.7c-63.1 19.5-194.3 40.8-201.2 41.9l-14.3-66.3-94.1 175.2 141.6 128.9-1.9-62.2 88.4-15.8c1-0.2 22.8-3.6 32.3-11.3 9.5-7.6 17.8-26 18.2-27l91.7-207c-2.3 5.2-16.1 29.9-60.7 43.6zM278.9 674.2c-1.6 4.6-31.3 92.1-27.7 114.4 3.5 22.4 16.5 59.9 60.1 78l234.5-13.7-22.6-184.6-244.3 5.9z" p-id="17188" fill="currentColor"></path><path d="M236.4 748.5c15.1-58.9 64.2-171.2 66.8-177.1l69.5 24.9-114-166.9L64 468.5l59 32.2-31.7 76.4c-0.4 1-8.6 19.5-6.5 30.9 2.2 11.4 14.9 27.5 15.6 28.5l144.8 182.1c-3.7-4.7-19.4-28.6-8.8-70.1z" p-id="17189" fill="currentColor"></path></svg>